<svg width="882" height="882" viewBox="0 0 882 882" fill="none" xmlns="http://www.w3.org/2000/svg">
<mask id="mask0_159_3274" style="mask-type:luminance" maskUnits="userSpaceOnUse" x="0" y="0" width="882" height="882">
<path d="M726.949 0.229689L0.37793 154.667L154.815 881.236L881.386 726.798L726.949 0.229689Z" fill="white"/>
</mask>
<g mask="url(#mask0_159_3274)">
<path d="M480.849 488.586C470.547 505.562 482.549 525.142 512.76 555.637C542.972 586.132 536.033 587.15 571.294 634.687C607.297 683.209 645.177 710.476 720.425 694.481C783.384 681.099 795.666 619.098 798.465 578.371C800.824 544.168 779.988 423.404 774.438 397.296C768.889 371.187 758.633 338.068 734.054 343.292C719.307 346.427 715.264 368.142 715.693 377.68C707.392 353.755 705.852 301.124 672.061 308.307C656.093 311.701 654.375 323.312 654.01 344.246C650.748 328.897 638.855 288.077 608.14 294.605C592.173 297.999 592.657 329.999 594.25 342.505C588.236 329.34 549.516 303.85 547.497 371.7C546.57 402.972 581.205 537.892 575.944 535.794C568.648 532.892 499.879 457.254 480.849 488.586Z" fill="#FFFD63"/>
<path d="M480.849 488.586C470.547 505.562 482.549 525.142 512.76 555.637C542.972 586.132 536.033 587.15 571.294 634.687C607.297 683.209 645.177 710.476 720.425 694.481C783.384 681.099 795.666 619.098 798.465 578.371C800.824 544.168 779.988 423.404 774.438 397.296C768.889 371.187 758.633 338.068 734.054 343.292C719.307 346.427 715.264 368.142 715.693 377.68C707.392 353.755 705.852 301.124 672.061 308.307C656.093 311.701 654.375 323.312 654.01 344.246C650.748 328.897 638.855 288.077 608.14 294.605C592.173 297.999 592.657 329.999 594.25 342.505C588.236 329.34 549.516 303.85 547.497 371.7C546.57 402.972 581.205 537.892 575.944 535.794C568.648 532.892 499.879 457.254 480.849 488.586Z" stroke="#0A0B1E" stroke-width="9.12067" stroke-linecap="round"/>
<path d="M624.295 483.783L594.264 342.499" stroke="black" stroke-width="9.12067" stroke-linecap="round"/>
<path d="M681.44 473.254L654.018 344.242" stroke="black" stroke-width="9.12067" stroke-linecap="round"/>
<path d="M735.608 471.351L714.068 370.012" stroke="black" stroke-width="9.12067" stroke-linecap="round"/>
<path d="M424.967 500.465C441.283 511.783 438.282 534.552 423.086 574.698C407.89 614.845 414.643 612.953 401.765 670.723C388.61 729.693 365.097 770.009 289.848 786.004C226.89 799.386 190.451 747.741 171.329 711.673C155.262 681.387 125.178 562.589 119.628 536.481C114.079 510.372 109.977 475.945 134.556 470.72C149.303 467.586 161.829 485.779 165.316 494.667C163.169 469.434 143.168 420.727 176.96 413.544C192.927 410.15 199.22 420.059 208.067 439.034C204.805 423.686 199.066 381.557 229.781 375.029C245.748 371.635 258.321 401.065 261.953 413.137C262.093 398.665 287.097 359.63 316.539 420.793C330.105 448.984 353.342 586.326 357.294 582.27C362.779 576.651 394.838 479.581 424.967 500.465Z" fill="#FFFD63"/>
<path d="M424.967 500.465C441.283 511.783 438.282 534.552 423.086 574.698C407.89 614.845 414.643 612.953 401.765 670.723C388.61 729.693 365.097 770.009 289.848 786.004C226.89 799.386 190.451 747.741 171.329 711.673C155.262 681.387 125.178 562.589 119.628 536.481C114.079 510.372 109.977 475.945 134.556 470.72C149.303 467.586 161.829 485.779 165.316 494.667C163.169 469.434 143.168 420.727 176.96 413.544C192.927 410.15 199.22 420.059 208.067 439.034C204.805 423.686 199.066 381.557 229.781 375.029C245.748 371.635 258.321 401.065 261.953 413.137C262.093 398.665 287.097 359.63 316.539 420.793C330.105 448.984 353.342 586.326 357.294 582.27C362.779 576.651 394.838 479.581 424.967 500.465Z" stroke="#0A0B1E" stroke-width="9.12067" stroke-linecap="round"/>
<path d="M291.985 554.42L261.954 413.137" stroke="black" stroke-width="9.12067" stroke-linecap="round"/>
<path d="M235.495 568.045L208.073 439.032" stroke="black" stroke-width="9.12067" stroke-linecap="round"/>
<path d="M185.239 588.338L163.699 487" stroke="black" stroke-width="9.12067" stroke-linecap="round"/>
</g>
</svg>
